# xmcd
#
# Track frame offsets:
#	187
#	12745
#	27995
#	45357
#	57622
#	74170
#	87712
#	101790
#	116902
#	135422
#
# Disc length: 2015 seconds
#
# Revision: 5
# Processed by: cddbd v1.5.1PL2 Copyright (c) Steve Scherf et al.
# Submitted via: dBpowerAMP V4.0
#
DISCID=9607dc0a,9907dd0a
DTITLE=John Anderson - Paradise
DYEAR=1996
DGENRE=Country
TTITLE0=Paradise
TTITLE1=Long Hard Lesson Learned
TTITLE2=The Band Plays On
TTITLE3=My Kind Of Crazy
TTITLE4=Let The Guitar Do The Talkin'
TTITLE5=30,000 Feet
TTITLE6=It Wouldn't Kill Me
TTITLE7=Love Comes Back Around
TTITLE8=Bad Weather
TTITLE9=They Spent Forever
EXTD=
EXTT0=
EXTT1=
EXTT2=
EXTT3=
EXTT4=
EXTT5=
EXTT6=
EXTT7=
EXTT8=
EXTT9=
PLAYORDER=
